<?xml version="1.0" encoding="iso-8859-1"?>
<!-- Generator: Adobe Illustrator 19.0.0, SVG Export Plug-In . SVG Version: 6.00 Build 0)  -->
<svg xmlns="http://www.w3.org/2000/svg" xmlns:xlink="http://www.w3.org/1999/xlink" version="1.1" id="Capa_1" x="0px" y="0px" viewBox="0 0 455 455" style="enable-background:new 0 0 455 455;" xml:space="preserve" width="512" height="512">
<g>
	<path style="fill:#F2484B;" d="M401.32,97.229L381.32,455c-18.41,0-18.41-16-36.83-16l-20-349.27L401.32,97.229z"/>
	<path style="fill:#F2484B;" d="M53.68,97.229L73.68,455c18.41,0,18.41-16,36.83-16l20-349.27L53.68,97.229z"/>
	<path style="fill:#BD1515;" d="M307.66,82.231l36.83,7.499V439c-18.42,0-18.42,16-36.83,16V82.231z"/>
	<path style="fill:#F2484B;" d="M455,112.231V455c-18.42,0-18.42-16-36.84-16l-20-334.27L455,112.231z"/>
	<path style="fill:#BD1515;" d="M418.16,104.73V439c-18.42,0-18.42,16-36.84,16V97.229L418.16,104.73z"/>
	<path style="fill:#BD1515;" d="M147.34,82.231l-36.83,7.499V439c18.42,0,18.42,16,36.83,16V82.231z"/>
	<path style="fill:#F2484B;" d="M0,112.231V455c18.42,0,18.42-16,36.84-16l20-334.27L0,112.231z"/>
	<path style="fill:#BD1515;" d="M36.84,104.73V439c18.42,0,18.42,16,36.84,16V97.229L36.84,104.73z"/>
	<path style="fill:#BD1515;" d="M344.972,10v99.165c17.037,9.803,36.79,15.415,57.858,15.415c18.762,0,36.481-4.452,52.17-12.349V77   L344.972,10z"/>
	<path style="fill:#F2484B;" d="M89.824,0c-2.157,9.81-3.304,19.998-3.304,30.455c0,77.985,63.22,141.205,141.205,141.205   S368.93,108.44,368.93,30.455c0-10.458-1.147-20.646-3.304-30.455H89.824z"/>
	<path style="fill:#BD1515;" d="M358.983,10v72.604C371.83,90.21,386.819,94.58,402.83,94.58c19.609,0,37.686-6.552,52.17-17.58   V29.284L358.983,10z"/>
	<path style="fill:#BD1515;" d="M365.626,0l1.681,51.926c9.682,7.907,22.047,12.654,35.522,12.654   c23.649,0,43.872-14.613,52.17-35.296V0H365.626z"/>
	<path style="fill:#BD1515;" d="M110.352,10L0,77v35.231c15.689,7.896,33.408,12.349,52.17,12.349   c21.202,0,41.072-5.687,58.182-15.606V10z"/>
	<path style="fill:#BD1515;" d="M96.379,10L0,29.284V77c14.484,11.028,32.561,17.58,52.17,17.58c16.162,0,31.282-4.452,44.209-12.19   V10z"/>
	<path style="fill:#BD1515;" d="M0,0v29.284C8.298,49.967,28.521,64.58,52.17,64.58c13.663,0,26.185-4.879,35.926-12.985L89.824,0H0   z"/>
	<path style="fill:#F2484B;" d="M89.824,0c-2.157,9.81-3.304,19.998-3.304,30.455c0,77.985,63.22,141.205,141.205,141.205   S368.93,108.44,368.93,30.455c0-10.458-1.147-20.646-3.304-30.455h-30.919L227.725,20L120.742,0H89.824z"/>
	<path style="fill:#BD1515;" d="M334.708,0h-31.705l-75.278,20L152.447,0h-31.705c-2.75,9.679-4.222,19.895-4.222,30.455   c0,61.417,49.788,111.205,111.205,111.205S338.93,91.872,338.93,30.455C338.93,19.895,337.458,9.679,334.708,0z"/>
	<path style="fill:#F2484B;" d="M146.52,30.455c0,44.848,36.357,81.205,81.205,81.205s81.205-36.357,81.205-81.205   c0-10.774-2.117-21.048-5.927-30.455H152.447C148.637,9.407,146.52,19.681,146.52,30.455z"/>
</g>















</svg>
